<svg id="Camada_1" data-name="Camada 1" xmlns="http://www.w3.org/2000/svg" viewBox="0 0 327 500"><defs><style>.cls-1{fill:#1d5d7c;}.cls-2,.cls-5,.cls-6,.cls-7{fill:#fff;}.cls-3{opacity:0.3;}.cls-4{fill:none;}.cls-5{opacity:0.15;}.cls-6{opacity:0.3;}.cls-7{opacity:0.08;}</style></defs><path class="cls-1" d="M45.87,366H63.45l24.3,70.13H68.19L64,422.4H45.28l-4.15,13.73H21.48Zm15,43.56-6.22-21.73-6.52,21.73Z"/><path class="cls-1" d="M98,436.13V366h27a39.5,39.5,0,0,1,15.31,2.77,30.79,30.79,0,0,1,17.78,18.62A40.2,40.2,0,0,1,160.34,401a39.62,39.62,0,0,1-2.52,14.47,31.26,31.26,0,0,1-7.16,11.06,32,32,0,0,1-11.16,7.11A39.93,39.93,0,0,1,125,436.13ZM140.79,401a24.11,24.11,0,0,0-1.09-7.41,16.62,16.62,0,0,0-3.11-5.73,14,14,0,0,0-5-3.7,16,16,0,0,0-6.62-1.34h-7.7v36.55H125A15.62,15.62,0,0,0,131.7,418a13.93,13.93,0,0,0,5-3.85,16.84,16.84,0,0,0,3.06-5.82A24.74,24.74,0,0,0,140.79,401Z"/><path class="cls-1" d="M173.18,436.13V366h27a39.53,39.53,0,0,1,15.31,2.77,30.79,30.79,0,0,1,17.78,18.62A40.2,40.2,0,0,1,235.5,401,39.62,39.62,0,0,1,233,415.44a31.26,31.26,0,0,1-7.16,11.06,32,32,0,0,1-11.16,7.11,39.93,39.93,0,0,1-14.52,2.52ZM215.94,401a24.12,24.12,0,0,0-1.08-7.41,16.62,16.62,0,0,0-3.11-5.73,14.1,14.1,0,0,0-5-3.7,16,16,0,0,0-6.62-1.34h-7.7v36.55h7.7a15.62,15.62,0,0,0,6.72-1.39,14,14,0,0,0,5-3.85,17,17,0,0,0,3.06-5.82A24.74,24.74,0,0,0,215.94,401Z"/><path class="cls-1" d="M263.65,366h17.58l24.29,70.13H286l-4.25-13.73H263.05l-4.14,13.73H239.25Zm15,43.56-6.22-21.73-6.52,21.73Z"/><path class="cls-1" d="M19.9,481.56c0-7.48,5.83-13,13.66-13.05,4.32,0,7.66,1.26,10,3.92l-2.74,2.82a9.23,9.23,0,0,0-7.09-3c-5.48,0-9.47,3.91-9.45,9.29a9.09,9.09,0,0,0,9.52,9.22,9.27,9.27,0,0,0,7.06-3.1l2.77,2.8c-2.34,2.72-5.68,4-10,4C25.83,494.53,19.93,489,19.9,481.56Z"/><path class="cls-1" d="M46.87,481.45c0-7.47,5.82-13,13.7-13.05s13.77,5.47,13.8,12.94-5.78,13-13.7,13.05S46.9,488.93,46.87,481.45ZM70,481.36a9,9,0,0,0-9.43-9.22,9.26,9.26,0,1,0,.08,18.52A9,9,0,0,0,70,481.36Z"/><path class="cls-1" d="M103.6,468.59l.1,25.28h-3.56L85.47,476.09l.07,17.85-4.31,0-.1-25.28,3.56,0,14.67,17.88-.08-17.93Z"/><path class="cls-1" d="M110.18,491.17l1.68-3.39a14.08,14.08,0,0,0,8.56,2.73c4.22,0,5.78-1.63,5.77-3.54,0-5.87-15.32-1.72-15.36-11.24,0-4.5,3.85-7.54,10.16-7.56a15.67,15.67,0,0,1,8.51,2.14L128,473.79a12.27,12.27,0,0,0-7.08-2c-4,0-5.74,1.62-5.73,3.62,0,5.83,15.32,1.81,15.35,11.11,0,4.59-3.79,7.58-10.25,7.61C116.34,494.18,112.28,493,110.18,491.17Z"/><path class="cls-1" d="M136.72,482.92l-.06-14.46,4.32,0,.05,14.38c0,4.94,2.43,7.51,6.84,7.49s6.8-2.56,6.78-7.54l-.06-14.38,4.23,0,.06,14.47c0,7.07-4.1,11.18-11,11.21S136.74,490,136.72,482.92Z"/><path class="cls-1" d="M167.72,468.34l4.31,0,.09,21.68,13.57-.06,0,3.61-17.89.07Z"/><path class="cls-1" d="M192.43,471.8l-8.63,0,0-3.56,21.59-.09v3.56l-8.63,0,.08,21.71-4.32,0Z"/><path class="cls-1" d="M207.64,480.82c0-7.48,5.82-13,13.7-13.05s13.77,5.47,13.8,12.94-5.78,13-13.7,13.05S207.67,488.3,207.64,480.82Zm23.14-.09a9.39,9.39,0,1,0-9.35,9.29A9,9,0,0,0,230.78,480.73Z"/><path class="cls-1" d="M258.91,493.26l-5.46-7.55a8.7,8.7,0,0,1-1.16.05l-6,0,0,7.52-4.31,0-.1-25.28,10.32,0c6.63,0,10.83,3.2,10.85,8.86a8.09,8.09,0,0,1-5.53,8l6,8.34Zm-.2-16.38c0-3.43-2.34-5.33-6.74-5.31l-5.74,0,0,10.68,5.74,0C256.42,482.23,258.72,480.31,258.71,476.88Z"/><path class="cls-1" d="M270.46,467.93h4.32l.1,25.28h-4.32Z"/><path class="cls-1" d="M300.09,487.09l-13.58.05-2.64,6-4.23,0,11.47-25.33h4.27l11.72,25.23-4.36,0Zm-1.53-3.42-5.3-11.91L288,483.71Z"/><rect class="cls-1" x="6.78" y="5.5" width="313.43" height="313.12"/><path class="cls-2" d="M123.4,159.36h-.29l-31.35-.19a4.87,4.87,0,0,1-4.84-4.9L87.36,87a4.85,4.85,0,0,1,4.87-4.83h0l26.81.27a40,40,0,0,1,35,21.12A38.63,38.63,0,0,1,153,143.08q-.45.72-.93,1.41A34.71,34.71,0,0,1,123.4,159.36ZM92.22,86.05a1,1,0,0,0-.65.27.92.92,0,0,0-.29.67l-.44,67.3a1,1,0,0,0,.28.67.91.91,0,0,0,.66.28l31.42.19h.2a30.8,30.8,0,0,0,25.46-13.16c.29-.42.57-.85.84-1.28a34.76,34.76,0,0,0,1-35.59A36.08,36.08,0,0,0,119,86.32Zm31.17,67.49h-.3l-30.35-.18L93.17,88l25.84.26a34.24,34.24,0,0,1,30,18.09A32.91,32.91,0,0,1,148.1,140c-.26.41-.52.81-.8,1.21A28.91,28.91,0,0,1,123.39,153.54Zm-26.7-4.08,26.54.16h.16A25,25,0,0,0,144.07,139c.25-.35.48-.71.71-1.07a29,29,0,0,0,.78-29.71,30.31,30.31,0,0,0-26.59-16l-21.91-.23Z"/><g class="cls-3"><path class="cls-2" d="M204.12,84.87h31.42a2.9,2.9,0,0,1,2.9,2.91l0,67.3a3,3,0,0,1-.86,2.06,2.92,2.92,0,0,1-2.05.84h0l-26.8-.11A38,38,0,0,1,175.24,138a36.7,36.7,0,0,1,.8-37.58c.28-.45.57-.9.88-1.35A32.73,32.73,0,0,1,204.12,84.87Zm28.51,5.81h-28.5a27,27,0,0,0-22.41,11.64c-.25.38-.5.76-.74,1.15a31,31,0,0,0-.65,31.7,32.25,32.25,0,0,0,28.4,16.89l23.87.1Z"/></g><g class="cls-3"><path class="cls-2" d="M122.74,165.64h31.42a2.92,2.92,0,0,1,2.91,2.91l0,67.3a2.91,2.91,0,0,1-.85,2.06,2.94,2.94,0,0,1-2.05.85h0l-26.79-.11a38,38,0,0,1-33.46-19.89,36.7,36.7,0,0,1,.8-37.58c.28-.46.57-.91.88-1.36A32.75,32.75,0,0,1,122.74,165.64Zm28.52,5.82h-28.5a26.94,26.94,0,0,0-22.41,11.64c-.26.38-.5.76-.74,1.14a30.93,30.93,0,0,0-.65,31.7,32.23,32.23,0,0,0,28.39,16.89l23.88.1Z"/></g><path class="cls-2" d="M204.77,241.32h-.29l-31.35-.19a4.91,4.91,0,0,1-3.43-1.45,4.81,4.81,0,0,1-1.41-3.45l.44-67.3a4.88,4.88,0,0,1,4.87-4.84h0l26.81.27a39.94,39.94,0,0,1,35,21.12A38.63,38.63,0,0,1,234.39,225q-.45.72-.93,1.41A34.71,34.71,0,0,1,204.77,241.32ZM173.6,168a.94.94,0,0,0-.66.27.92.92,0,0,0-.29.67l-.44,67.3a1,1,0,0,0,.28.67.93.93,0,0,0,.67.28l31.41.2h.2a30.81,30.81,0,0,0,25.46-13.17c.29-.42.57-.85.84-1.28a34.75,34.75,0,0,0,1-35.59,36.06,36.06,0,0,0-31.64-19.07L173.61,168Zm31.16,67.49h-.3l-30.35-.18.43-65.41,25.84.27a34.21,34.21,0,0,1,30,18.08,32.88,32.88,0,0,1-.91,33.68c-.25.41-.52.81-.8,1.21A28.91,28.91,0,0,1,204.76,235.5Zm-26.7-4.08,26.54.16h.16a25,25,0,0,0,20.69-10.65l.7-1.07a29,29,0,0,0,.78-29.72,30.31,30.31,0,0,0-26.59-16l-21.9-.22Z"/><path class="cls-4" d="M119,252.92l-23.87-.24-.41,61.47,28.39.17h.11a27,27,0,0,0,22.48-11.5q.39-.57.75-1.14a31,31,0,0,0,.84-31.7A32.25,32.25,0,0,0,119,252.92Z"/><path class="cls-4" d="M204.62,252.92a27,27,0,0,0-22.4,11.64c-.26.38-.5.76-.74,1.15a30.93,30.93,0,0,0-.65,31.7,32.25,32.25,0,0,0,28.39,16.89l23.88.1,0-61.48h-28.5Z"/><path class="cls-5" d="M119.05,247.1l-26.79-.27h0a2.92,2.92,0,0,0-2.92,2.89L88.88,317a2.93,2.93,0,0,0,.47,1.6H133.4a32.37,32.37,0,0,0,17.07-12.5c.31-.44.61-.89.89-1.34a36.72,36.72,0,0,0,1-37.58A38,38,0,0,0,119.05,247.1Zm27.39,54.58q-.36.57-.75,1.14a27,27,0,0,1-22.48,11.5h-.11l-28.39-.17.41-61.47,23.87.24A32.25,32.25,0,0,1,147.28,270,31,31,0,0,1,146.44,301.68Z"/><path class="cls-6" d="M236,247.11H204.61a32.75,32.75,0,0,0-27.2,14.18q-.45.68-.87,1.35a36.7,36.7,0,0,0-.8,37.58,38.07,38.07,0,0,0,22.91,18.4h39.94a2.9,2.9,0,0,0,.32-1.3l0-67.3a2.9,2.9,0,0,0-2.91-2.91ZM233.1,314.4l-23.88-.1a32.25,32.25,0,0,1-28.39-16.89,30.93,30.93,0,0,1,.65-31.7c.24-.39.48-.77.74-1.15a27,27,0,0,1,22.4-11.64h28.5Z"/><polygon class="cls-4" points="285.39 230.97 314.36 173.02 257.41 173.02 285.39 230.97"/><path class="cls-4" d="M319.71,318.09,288,251.37a1.42,1.42,0,0,0-1.29-.83,1.56,1.56,0,0,0-1.32.8l-.84,1.65-32.82,64.67a.92.92,0,0,0,0,.92l0,0h68A1,1,0,0,0,319.71,318.09Zm-65.6-.94L286.67,253l30.68,64.55Z"/><polygon class="cls-4" points="257.3 152.47 314.24 152.81 286.62 94.69 257.3 152.47"/><polygon class="cls-4" points="260.48 313.27 311.13 313.58 286.56 261.88 260.48 313.27"/><path class="cls-5" d="M286.75,85.83a3.52,3.52,0,0,0-3.1,1.87L250,154a2.94,2.94,0,0,0,.11,2.83,2.9,2.9,0,0,0,2.47,1.39l66.28.41a2.86,2.86,0,0,0,1.38-.35v-6.47l-30.45-64A3.42,3.42,0,0,0,286.75,85.83Zm-2.23,4.46h0Zm-27.23,62.18,29.33-57.78,27.62,58.12Z"/><path class="cls-6" d="M252.78,167.2a3,3,0,0,0-2.47,1.36,2.9,2.9,0,0,0-.15,2.81l32.11,66.52a3.41,3.41,0,0,0,3,1.94,3.5,3.5,0,0,0,3.09-1.89l31.82-63.64v-6.84a3.07,3.07,0,0,0-1.16-.26Zm34.73,68.16h0ZM285.39,231l-28-57.95h56.95Z"/><path class="cls-2" d="M286.7,246.62a5.42,5.42,0,0,0-4.8,2.93l-33.67,66.34a4.82,4.82,0,0,0-.49,2.73h4.06l0,0a.92.92,0,0,1,0-.92l33.66-66.32a1.56,1.56,0,0,1,1.32-.8,1.42,1.42,0,0,1,1.29.83l31.71,66.72a1,1,0,0,1,.07.53h.44V310l-28.67-60.32A5.36,5.36,0,0,0,286.7,246.62Z"/><path class="cls-2" d="M254.11,317.15l63.24.39L286.67,253Zm6.37-3.88,26.08-51.39,24.57,51.7Z"/><path class="cls-4" d="M204.59,70.8a27,27,0,0,0,22.47-11.5q.39-.57.75-1.14a31,31,0,0,0,.85-31.7,32.31,32.31,0,0,0-28.3-17.07l-23.87-.24-.4,61.48,28.38.17Z"/><path class="cls-4" d="M122.76,8.72a27,27,0,0,0-22.41,11.64c-.26.38-.5.76-.74,1.15A30.92,30.92,0,0,0,99,53.2a32.26,32.26,0,0,0,28.4,16.9l23.87.1,0-61.48h-28.5Z"/><polygon class="cls-4" points="285.39 68.23 314.36 10.27 257.41 10.27 285.39 68.23"/><path class="cls-7" d="M250.58,5.5a4.15,4.15,0,0,0-.27.32,2.9,2.9,0,0,0-.15,2.81l32.11,66.52a3.38,3.38,0,0,0,3,1.93,3.51,3.51,0,0,0,3.09-1.88l31.82-63.65V5.5Zm36.93,67.12h0Zm-2.12-4.39-28-58h56.95Z"/><path class="cls-6" d="M109.81,5.5A32.26,32.26,0,0,0,95.55,17.09c-.31.44-.6.89-.88,1.35A36.7,36.7,0,0,0,93.87,56a38,38,0,0,0,33.46,19.89l26.79.11h0a2.9,2.9,0,0,0,2.9-2.91l0-67.3c0-.1,0-.21,0-.31Zm41.42,64.7-23.87-.1A32.26,32.26,0,0,1,99,53.2a30.92,30.92,0,0,1,.65-31.69c.24-.39.48-.77.74-1.15A27,27,0,0,1,122.76,8.72h28.5Z"/><path class="cls-5" d="M173.14,76.42l31.28.19h.14a32.75,32.75,0,0,0,27.29-14c.3-.45.6-.89.88-1.35a36.68,36.68,0,0,0,1-37.57A38.08,38.08,0,0,0,212.09,5.5h-41.3a2.75,2.75,0,0,0-.1.7l-.44,67.3a2.94,2.94,0,0,0,.84,2.06A2.88,2.88,0,0,0,173.14,76.42Zm3.35-67.27,23.87.24a32.31,32.31,0,0,1,28.3,17.07,31,31,0,0,1-.85,31.7q-.36.57-.75,1.14a27,27,0,0,1-22.47,11.5h-.12l-28.38-.17Z"/><path class="cls-6" d="M36.93,155.27a3.4,3.4,0,0,0,3,1.93,3.51,3.51,0,0,0,3.09-1.88L76.32,88.78a2.91,2.91,0,0,0-2.6-4.21H7.44a2.92,2.92,0,0,0-.66.09v8.16Zm5.24-2.53ZM69,90.39l-29,58-28-57.95Z"/><path class="cls-5" d="M7.71,237.88l66.28.4a2.9,2.9,0,0,0,2.65-4.15L44.93,167.41a3.39,3.39,0,0,0-3-1.95,3.52,3.52,0,0,0-3.1,1.86l-32,63.09v7.29A3,3,0,0,0,7.71,237.88Zm32-68h0Zm2.09,4.41L69.4,232.44l-56.95-.35Z"/><path class="cls-7" d="M37.43,317.52a3.39,3.39,0,0,0,.84,1.1h4.41a3.34,3.34,0,0,0,.88-1.05L76.82,251a2.91,2.91,0,0,0-2.6-4.2H7.93a2.84,2.84,0,0,0-1.15.26V254ZM42.66,315h0Zm26.85-62.35-29,57.95-28-57.95Z"/><path class="cls-2" d="M72.51,71.68,41.83,7.13,9.27,71.29Zm-6.22-4-50.65-.31L41.72,16Z"/><path class="cls-2" d="M78.41,70.54,47.5,5.5H43.16L74.87,72.23a.93.93,0,0,1-.06.91,1,1,0,0,1-.8.44L7.73,73.17a.94.94,0,0,1-.84-1.37L40.54,5.5h-4.4L6.78,63.34V77a5.64,5.64,0,0,0,.92.11L74,77.5h0a4.87,4.87,0,0,0,4.4-7Z"/></svg>